<svg xmlns="http://www.w3.org/2000/svg" width="182" height="182" viewBox="0 0 182 182"><defs><clipPath id="zklma"><path fill="#fff" d="M0 182V0h182v182zm6.977-91.006c0 46.41 37.622 84.032 84.032 84.032s84.032-37.622 84.032-84.032c0-46.409-37.623-84.031-84.032-84.031-46.41 0-84.032 37.622-84.032 84.031z"/></clipPath></defs><g><g><path fill="#fed136" d="M91.009 6.963c46.41 0 84.032 37.622 84.032 84.031 0 46.41-37.623 84.032-84.032 84.032-46.41 0-84.032-37.622-84.032-84.032C6.977 44.585 44.6 6.963 91.01 6.963z"/><path fill="none" stroke="#f1f1f1" stroke-linecap="round" stroke-linejoin="round" stroke-miterlimit="50" stroke-width="14" d="M91.009 6.963c46.41 0 84.032 37.622 84.032 84.031 0 46.41-37.623 84.032-84.032 84.032-46.41 0-84.032-37.622-84.032-84.032C6.977 44.585 44.6 6.963 91.01 6.963z" clip-path="url(&quot;#zklma&quot;)"/></g></g></svg>