<svg xmlns="http://www.w3.org/2000/svg" width="74" height="73" viewBox="0 0 74 73"><defs><clipPath id="45qsa"><path fill="#fff" d="M0 73V0h74v73zm3.835-36.691c0 18.293 14.829 33.122 33.122 33.122s33.122-14.83 33.122-33.122c0-18.293-14.83-33.122-33.122-33.122-18.293 0-33.122 14.83-33.122 33.122z"/></clipPath></defs><g><g><path fill="#fff" d="M36.957 3.187c18.293 0 33.122 14.83 33.122 33.122 0 18.293-14.83 33.122-33.122 33.122-18.293 0-33.122-14.83-33.122-33.122 0-18.293 14.829-33.122 33.122-33.122z"/><path fill="none" stroke="#fed136" stroke-linecap="round" stroke-linejoin="round" stroke-miterlimit="50" stroke-width="6" d="M36.957 3.187c18.293 0 33.122 14.83 33.122 33.122 0 18.293-14.83 33.122-33.122 33.122-18.293 0-33.122-14.83-33.122-33.122 0-18.293 14.829-33.122 33.122-33.122z" clip-path="url(&quot;#45qsa&quot;)"/></g></g></svg>