<svg xmlns="http://www.w3.org/2000/svg" width="234" height="235" viewBox="0 0 234 235"><defs><clipPath id="ovhua"><path fill="#fff" d="M0 235V0h234v235zm6.986-117.23c0 60.753 49.25 110.003 110.003 110.003s110.004-49.25 110.004-110.003S177.743 7.767 116.989 7.767C56.236 7.767 6.986 57.017 6.986 117.77z"/></clipPath></defs><g><g><path fill="#111" d="M116.99 7.767c60.752 0 110.003 49.25 110.003 110.003s-49.25 110.003-110.004 110.003c-60.753 0-110.003-49.25-110.003-110.003S56.236 7.767 116.989 7.767z"/><path fill="none" stroke="#fff" stroke-linecap="round" stroke-linejoin="round" stroke-miterlimit="50" stroke-width="14" d="M116.99 7.767c60.752 0 110.003 49.25 110.003 110.003s-49.25 110.003-110.004 110.003c-60.753 0-110.003-49.25-110.003-110.003S56.236 7.767 116.989 7.767z" clip-path="url(&quot;#ovhua&quot;)"/></g></g></svg>