<svg xmlns="http://www.w3.org/2000/svg" width="40" height="41" viewBox="0 0 40 41"><defs><clipPath id="gqbna"><path fill="#fff" d="M20.026.277c11.064 0 20.034 8.97 20.034 20.034 0 11.064-8.97 20.034-20.034 20.034-11.065 0-20.034-8.97-20.034-20.034C-.008 9.247 8.962.277 20.026.277z"/></clipPath></defs><g><g><path fill="#f9f9f9" d="M20.026.277c11.064 0 20.034 8.97 20.034 20.034 0 11.064-8.97 20.034-20.034 20.034-11.065 0-20.034-8.97-20.034-20.034C-.008 9.247 8.962.277 20.026.277z"/><path fill="none" stroke="#222" stroke-linecap="round" stroke-linejoin="round" stroke-miterlimit="50" stroke-width="6" d="M20.026.277c11.064 0 20.034 8.97 20.034 20.034 0 11.064-8.97 20.034-20.034 20.034-11.065 0-20.034-8.97-20.034-20.034C-.008 9.247 8.962.277 20.026.277z" clip-path="url(&quot;#gqbna&quot;)"/></g></g></svg>